<svg width="52" height="55" viewBox="0 0 52 55" fill="none" xmlns="http://www.w3.org/2000/svg">
<path d="M44.3097 8.00263C41.9198 5.45642 39.0734 3.43755 35.9365 2.06364C32.7996 0.689732 29.4349 -0.0117237 26.0385 0.000148211C11.8072 0.000148211 0.208517 12.2376 0.208517 27.2526C0.208517 32.0651 1.40748 36.7401 3.64903 40.865L0 55L13.6839 51.205C17.4632 53.3775 21.7118 54.5325 26.0385 54.5325C40.2697 54.5325 51.8684 42.295 51.8684 27.2801C51.8684 19.9926 49.1838 13.1451 44.3097 8.00263ZM26.0385 49.9125C22.1809 49.9125 18.4016 48.8125 15.0914 46.75L14.3094 46.255L6.17729 48.51L8.34065 40.15L7.81936 39.2975C5.67568 35.687 4.53764 31.5131 4.53523 27.2526C4.53523 14.7676 14.1791 4.59264 26.0124 4.59264C31.7466 4.59264 37.142 6.95763 41.182 11.2476C43.1827 13.3482 44.7682 15.8471 45.8465 18.5993C46.9248 21.3514 47.4745 24.3021 47.4635 27.2801C47.5156 39.765 37.8718 49.9125 26.0385 49.9125ZM37.8196 32.9726C37.168 32.6426 33.9881 30.9926 33.4147 30.7451C32.8152 30.5251 32.3982 30.4151 31.9551 31.0751C31.512 31.7626 30.287 33.3026 29.9221 33.7426C29.5572 34.2101 29.1662 34.2651 28.5146 33.9076C27.863 33.5776 25.7778 32.8351 23.3278 30.5251C21.399 28.7101 20.1218 26.4826 19.7309 25.7951C19.3659 25.1076 19.6787 24.7501 20.0176 24.3926C20.3043 24.0901 20.6692 23.5951 20.9819 23.2101C21.2947 22.8251 21.425 22.5226 21.6336 22.0826C21.8421 21.6151 21.7378 21.2301 21.5814 20.9001C21.425 20.5701 20.1218 17.2151 19.6005 15.8401C19.0792 14.5201 18.5319 14.6851 18.1409 14.6576H16.8898C16.4467 14.6576 15.769 14.8226 15.1696 15.5101C14.5961 16.1976 12.928 17.8476 12.928 21.2026C12.928 24.5576 15.2478 27.8026 15.5605 28.2426C15.8733 28.7101 20.1218 35.5851 26.5858 38.5275C28.1236 39.2425 29.3226 39.655 30.2609 39.9575C31.7987 40.48 33.2062 40.3975 34.327 40.2325C35.5781 40.04 38.1585 38.5825 38.6798 36.9875C39.2271 35.3926 39.2271 34.0451 39.0447 33.7426C38.8622 33.4401 38.4712 33.3026 37.8196 32.9726Z" fill="#D4A65A"/>
</svg>
